<svg width="40" height="40" viewBox="0 0 40 40" fill="none" xmlns="http://www.w3.org/2000/svg">
<g clip-path="url(#clip0_1821_270)">
<path fill-rule="evenodd" clip-rule="evenodd" d="M0 0H40V40H0V0Z" fill="url(#paint0_linear_1821_270)"/>
<path fill-rule="evenodd" clip-rule="evenodd" d="M1.75973 36.8758H1.64539C1.64539 36.8187 1.61675 36.7328 1.61675 36.7039C1.61675 36.6755 1.61675 36.6184 1.53084 36.6184H1.35901V36.8758H1.2731V36.2748H1.53084C1.64539 36.2748 1.73109 36.3036 1.73109 36.4178C1.73109 36.5037 1.70245 36.5325 1.67402 36.5607C1.70266 36.5896 1.73109 36.6182 1.73109 36.6755V36.7898C1.73109 36.8187 1.73109 36.8187 1.75973 36.8187V36.8758ZM1.64539 36.4466C1.64539 36.3607 1.58811 36.3607 1.55947 36.3607H1.35901V36.5325H1.53084C1.58811 36.5325 1.64539 36.5037 1.64539 36.4466V36.4466ZM2.13201 36.5609C2.13201 36.2177 1.84585 35.9311 1.47356 35.9311C1.13012 35.9311 0.84375 36.2177 0.84375 36.5609C0.84375 36.933 1.13012 37.2196 1.47356 37.2196C1.84564 37.2194 2.13201 36.933 2.13201 36.5609ZM2.0461 36.5609C2.0461 36.876 1.78857 37.1048 1.47356 37.1048C1.15855 37.1048 0.929662 36.8758 0.929662 36.5609C0.929662 36.2748 1.15876 36.017 1.47356 36.017C1.78836 36.017 2.0461 36.2748 2.0461 36.5609ZM37.3143 24.9959C37.3143 25.8548 36.7704 26.2551 35.797 26.2551H33.9366V25.3962H35.797C35.9688 25.3962 36.112 25.3677 36.1694 25.3107C36.2265 25.2532 36.2838 25.1673 36.2838 25.0529C36.2838 24.9382 36.2267 24.8238 36.1694 24.7668C36.112 24.7093 35.9976 24.6809 35.8258 24.6809C34.9387 24.652 33.822 24.7093 33.822 23.4499C33.822 22.8771 34.1941 22.2473 35.196 22.2473H37.1139V23.1062H35.339C35.1676 23.1062 35.0528 23.1062 34.9669 23.1633C34.881 23.2492 34.8239 23.3351 34.8239 23.4783C34.8239 23.6215 34.9098 23.7074 35.0242 23.7649C35.1389 23.7933 35.2535 23.8219 35.3967 23.8219H35.9117C36.4556 23.8219 36.7993 23.9363 37.0284 24.137C37.1998 24.3372 37.3143 24.5951 37.3143 24.9959V24.9959ZM33.2779 24.137C33.0488 23.9363 32.7052 23.8219 32.1613 23.8219H31.6462C31.5032 23.8219 31.3885 23.7931 31.2741 23.7649C31.1594 23.7074 31.0739 23.6215 31.0739 23.4783C31.0739 23.3351 31.1023 23.2492 31.2169 23.1633C31.3028 23.1062 31.4171 23.1062 31.5889 23.1062H33.3638V22.2473H31.446C30.4152 22.2473 30.0716 22.8771 30.0716 23.4499C30.0716 24.7091 31.1882 24.652 32.0758 24.6809C32.2472 24.6809 32.3619 24.7093 32.419 24.7668C32.4761 24.8238 32.5338 24.9382 32.5338 25.0529C32.5338 25.1673 32.4763 25.2532 32.419 25.3107C32.3331 25.3677 32.2187 25.3962 32.0469 25.3962H30.1861V26.2551H32.0469C33.02 26.2551 33.5641 25.8546 33.5641 24.9959C33.5641 24.5951 33.4497 24.3372 33.2779 24.137V24.137ZM29.6136 25.4252H27.3525V24.6236H29.5565V23.8224H27.3525V23.0778H29.6136V22.2477H26.4077V26.2553H29.6136V25.4252ZM25.3769 22.4482C25.0619 22.2764 24.6899 22.2475 24.2032 22.2475H21.9992V26.2551H22.9722V24.7952H24.003C24.3462 24.7952 24.5469 24.824 24.6901 24.967C24.8619 25.1673 24.8619 25.5109 24.8619 25.7687V26.2551H25.8063V25.4821C25.8063 25.11 25.7779 24.9382 25.6633 24.7379C25.5774 24.6232 25.406 24.4802 25.1769 24.3943C25.4342 24.3088 25.864 23.9651 25.864 23.3351C25.8638 22.8773 25.6919 22.6196 25.3769 22.4482V22.4482ZM19.9379 22.2475H16.8748L15.6438 23.5644L14.4701 22.2475H10.6055V26.2551H14.413L15.644 24.9382L16.8177 26.2551H18.6785V24.91H19.8809C20.7109 24.91 21.5414 24.6809 21.5414 23.5644C21.5412 22.4766 20.6823 22.2475 19.9379 22.2475ZM24.6039 23.9081C24.461 23.9651 24.3178 23.9651 24.146 23.9651L22.9722 23.994V23.0776H24.146C24.3178 23.0776 24.4896 23.0776 24.6039 23.1635C24.7187 23.221 24.8042 23.3353 24.8042 23.5071C24.8042 23.679 24.7187 23.8221 24.6039 23.9081V23.9081ZM19.9379 24.1083H18.6783V23.0776H19.9379C20.2816 23.0776 20.5105 23.221 20.5105 23.5644C20.5105 23.9081 20.2814 24.1083 19.9379 24.1083ZM16.245 24.2513L17.7335 22.6771V25.9118L16.245 24.2513ZM13.9262 25.4252H11.5501V24.6236H13.6685V23.8224H11.5501V23.0778H13.9548L15.014 24.2515L13.9262 25.4252V25.4252ZM34.6519 19.3562H33.2779L31.4744 16.3503V19.3562H29.5281L29.1556 18.4686H27.1518L26.7797 19.3562H25.6631C25.2051 19.3562 24.6039 19.2416 24.2607 18.898C23.9457 18.5546 23.7739 18.0966 23.7739 17.3808C23.7739 16.7797 23.8598 16.2358 24.2889 15.8064C24.5751 15.4914 25.0906 15.3484 25.7488 15.3484H26.6648V16.2073H25.7488C25.4056 16.2073 25.2049 16.2646 25.0047 16.4364C24.8328 16.6083 24.7469 16.9231 24.7469 17.3524C24.7469 17.7818 24.8328 18.0968 25.0047 18.2972C25.1476 18.4402 25.4056 18.4975 25.6629 18.4975H26.0925L27.4664 15.3486H28.8979L30.5009 19.1273V15.3484H31.9897L33.6786 18.1252V15.3484H34.6517V19.3562H34.6519V19.3562ZM23.2873 15.3484H22.3142V19.3562H23.2873V15.3484V15.3484ZM21.2546 15.5203C20.9396 15.3484 20.5964 15.3484 20.1098 15.3484H17.9053V19.3562H18.8499V17.8961H19.8805C20.2241 17.8961 20.4532 17.9247 20.5962 18.0679C20.768 18.2684 20.7392 18.612 20.7392 18.8409V19.3562H21.7122V18.5546C21.7122 18.2111 21.6838 18.0393 21.5408 17.8388C21.4549 17.7243 21.2831 17.5811 21.0828 17.4954C21.3401 17.3808 21.7699 17.066 21.7699 16.4362C21.7701 15.9782 21.5694 15.7205 21.2546 15.5203ZM17.2182 18.5261H14.9854V17.7245H17.1896V16.8944H14.9854V16.1787H17.2182V15.3486H14.0121V19.3564H17.2182V18.5261ZM13.2964 15.3484H11.722L10.5482 18.0679L9.28862 15.3484H7.74283V19.1271L6.11113 15.3484H4.67989L2.96228 19.3562H3.99281L4.36489 18.4686H6.36866L6.74074 19.3562H8.68745V16.2073L10.0901 19.3562H10.9201L12.3229 16.2073V19.3562H13.2962V15.3484H13.2964ZM28.8124 17.6099L28.1537 16.0355L27.4955 17.6099H28.8124ZM20.5105 16.9803C20.3675 17.0663 20.2243 17.0663 20.0239 17.0663H18.8499V16.1789H20.0236C20.1955 16.1789 20.3955 16.1789 20.5103 16.2362C20.6246 16.3221 20.6821 16.4366 20.6821 16.6083C20.6821 16.7799 20.6248 16.9229 20.5105 16.9803V16.9803ZM4.70832 17.6099L5.36677 16.0355L6.02522 17.6099H4.70832V17.6099ZM37.0854 2.78125H2.93344V17.2092L4.10715 14.547H6.59755L6.9412 15.2055V14.547H9.86116L10.5196 15.9782L11.1494 14.547H20.4532C20.8823 14.547 21.2544 14.6329 21.541 14.8618V14.547H24.0887V14.8618C24.5178 14.6327 25.0617 14.547 25.6917 14.547H29.3845L29.7281 15.2055V14.547H32.4476L32.8486 15.2055V14.547H35.5106V20.1578H32.8199L32.3049 19.2991V20.1578H28.9553L28.5833 19.2419H27.7528L27.3807 20.1578H25.6347C24.9476 20.1578 24.4321 19.986 24.0889 19.8144V20.1578H19.9379V18.8696C19.9379 18.6977 19.9093 18.6691 19.7948 18.6691H19.6518V20.1576H11.636V19.4419L11.3499 20.1576H9.66091L9.37474 19.4705V20.1576H6.13977L5.79633 19.2416H4.96606L4.59398 20.1576H2.93344V37.0762H37.0854V26.799C36.7133 26.9708 36.1979 27.0567 35.6826 27.0567H33.192V26.7131C32.9058 26.9424 32.3904 27.0567 31.9039 27.0567H24.06V25.7687C24.06 25.5968 24.0316 25.5968 23.8882 25.5968H23.7452V27.0567H21.1687V25.5396C20.7396 25.7398 20.2527 25.7398 19.8234 25.7398H19.537V27.0567H16.3882L15.644 26.1978L14.8139 27.0567H9.74661V21.4461H14.8994L15.6438 22.3046L16.4454 21.4461H19.9093C20.3098 21.4461 20.9685 21.5032 21.2546 21.7893V21.4461H24.3462C24.6612 21.4461 25.2626 21.5032 25.6631 21.7893V21.4461H30.3293V21.7895C30.587 21.5604 31.0739 21.4463 31.503 21.4463H34.108V21.7895C34.3946 21.5893 34.7951 21.4463 35.3105 21.4463H37.0854V2.78125V2.78125Z" fill="#9E9E9E"/>
</g>
<defs>
<linearGradient id="paint0_linear_1821_270" x1="20" y1="0" x2="20" y2="40" gradientUnits="userSpaceOnUse">
<stop stop-color="white"/>
<stop offset="1" stop-color="white" stop-opacity="0.75"/>
</linearGradient>
<clipPath id="clip0_1821_270">
<rect width="40" height="40" fill="white"/>
</clipPath>
</defs>
</svg>
