<svg width="119" height="20" viewBox="0 0 119 20" fill="none" xmlns="http://www.w3.org/2000/svg">
<g clip-path="url(#clip0_1820_223)">
<path fill-rule="evenodd" clip-rule="evenodd" d="M5.16769 0.336426H0V19.6048H5.16769C10.9574 19.6048 16.0699 17.6173 16.0699 9.96879C16.0699 2.324 10.9574 0.336426 5.16769 0.336426ZM5.89647 16.5683H3.78744V3.373H5.89647C9.06187 3.373 12.1168 5.77281 12.1168 9.9688C12.1168 14.1648 9.06187 16.5683 5.89647 16.5683Z" fill="url(#paint0_linear_1820_223)"/>
<path fill-rule="evenodd" clip-rule="evenodd" d="M21.3705 0.336389H17.583V19.6048H21.3705V0.336389ZM29.3907 3.56067C30.874 3.74839 32.2763 4.60967 33.5793 5.4231V1.73137C32.3131 0.627164 30.8593 0.00512695 29.2361 0.00512695C25.9124 0.00512695 22.6366 1.58046 22.6366 5.88687C22.6366 9.51089 25.3117 10.5835 27.6205 11.5092C29.373 12.2119 30.9145 12.8299 30.9145 14.415C30.9145 16.156 29.1698 16.6713 27.5614 16.3842C26.4446 16.1822 25.0733 15.362 23.909 14.6655C23.546 14.4484 23.2031 14.2433 22.8943 14.0727V17.9816C24.5322 19.0858 25.721 19.7079 27.7748 19.9397C31.5659 20.363 34.8639 18.335 34.8639 14.1132C34.8639 10.3561 32.0634 9.26112 29.7202 8.34495C28.0348 7.68595 26.586 7.11944 26.586 5.72124C26.586 3.79624 28.0325 3.38768 29.3907 3.56067ZM70.504 9.91723C70.504 4.09069 66.6613 0.00512695 60.7354 0.00512695C54.7322 0.00512695 50.7939 4.00604 50.7939 9.91723C50.7939 15.8247 54.677 19.9397 60.7354 19.9397C66.7129 19.9397 70.504 15.7401 70.504 9.91723ZM73.2829 0.336389H69.2268L76.5808 19.6048H77.9537L85.3482 0.336389H81.4172L77.4899 10.5172L73.2829 0.336389ZM97.4798 0.336389H86.3346V19.6048H97.535V16.5682H90.1221V11.1576H96.8577V8.12105H90.1221V3.37296H97.4798V0.336389ZM102.629 0.336389H98.5435V19.6048H102.331V11.5993H103.549C105.147 11.5993 105.633 12.1514 106.174 13.5869L108.445 19.6011H112.663L109.633 12.0667C109.254 11.2128 108.658 10.1602 107.631 10.0792V10.024C110.042 9.6927 111.529 7.81555 111.529 5.55193C111.529 0.328929 106.925 0.332832 102.932 0.336218C102.83 0.336304 102.729 0.336389 102.629 0.336389ZM103.575 8.56273H102.331V3.36928H103.575C105.471 3.36928 107.58 3.56436 107.58 5.88319C107.58 8.28668 105.441 8.56273 103.575 8.56273Z" fill="url(#paint1_linear_1820_223)"/>
<path d="M49.8368 17.6797C48.9166 18.8722 46.6199 19.6047 45.0703 19.7151C39.1996 20.1274 35.2539 16.8331 35.2539 10.3183C35.2539 3.72251 38.6917 -0.101724 45.0961 0.196411C46.3401 0.255302 48.3756 0.674901 49.7521 1.80119V5.51869C48.1474 4.51754 46.4837 3.80717 45.074 3.74828C41.1798 3.59001 39.2033 6.09656 39.2033 10.0423C39.2033 13.9622 41.0473 16.1669 45.0777 16.016C46.6236 15.9571 48.9976 14.6873 49.8331 13.988V17.6797H49.8368Z" fill="url(#paint2_linear_1820_223)"/>
<path fill-rule="evenodd" clip-rule="evenodd" d="M118.765 1.91902C118.765 2.83581 118.022 3.57902 117.105 3.57902C116.188 3.57902 115.445 2.83581 115.445 1.91902C115.445 1.00224 116.188 0.259033 117.105 0.259033C118.022 0.259033 118.765 1.00224 118.765 1.91902ZM117.105 0.579246C117.801 0.579246 118.36 1.14239 118.36 1.91902C118.36 2.69196 117.797 3.25511 117.105 3.25511C116.41 3.25511 115.85 2.69564 115.85 1.91902C115.85 1.13871 116.41 0.579246 117.105 0.579246Z" fill="url(#paint3_linear_1820_223)"/>
<path fill-rule="evenodd" clip-rule="evenodd" d="M117.164 0.969482H116.465H116.461V2.85032H116.811V2.04056H117.024L117.514 2.85032H117.871L117.366 2.02584C117.672 2.00008 117.856 1.84181 117.856 1.52159C117.856 1.12407 117.617 0.969482 117.164 0.969482ZM117.124 1.77555H116.814V1.23816H117.127C117.308 1.23816 117.51 1.27129 117.51 1.49581C117.51 1.7461 117.33 1.77555 117.124 1.77555Z" fill="url(#paint4_linear_1820_223)"/>
</g>
<defs>
<linearGradient id="paint0_linear_1820_223" x1="8.03495" y1="0.336426" x2="8.03495" y2="19.6048" gradientUnits="userSpaceOnUse">
<stop stop-color="white"/>
<stop offset="1" stop-color="white" stop-opacity="0.75"/>
</linearGradient>
<linearGradient id="paint1_linear_1820_223" x1="65.1228" y1="0.00512695" x2="65.1228" y2="19.9947" gradientUnits="userSpaceOnUse">
<stop stop-color="white"/>
<stop offset="1" stop-color="white" stop-opacity="0.75"/>
</linearGradient>
<linearGradient id="paint2_linear_1820_223" x1="42.5454" y1="0.180176" x2="42.5454" y2="19.7496" gradientUnits="userSpaceOnUse">
<stop stop-color="white"/>
<stop offset="1" stop-color="white" stop-opacity="0.75"/>
</linearGradient>
<linearGradient id="paint3_linear_1820_223" x1="117.105" y1="0.259033" x2="117.105" y2="3.57902" gradientUnits="userSpaceOnUse">
<stop stop-color="white"/>
<stop offset="1" stop-color="white" stop-opacity="0.75"/>
</linearGradient>
<linearGradient id="paint4_linear_1820_223" x1="117.166" y1="0.969482" x2="117.166" y2="2.85032" gradientUnits="userSpaceOnUse">
<stop stop-color="white"/>
<stop offset="1" stop-color="white" stop-opacity="0.75"/>
</linearGradient>
<clipPath id="clip0_1820_223">
<rect width="118.765" height="20" fill="white"/>
</clipPath>
</defs>
</svg>
