<svg width="17" height="20" viewBox="0 0 17 20" fill="none" xmlns="http://www.w3.org/2000/svg">
<g clip-path="url(#clip0_1805_188)">
<path d="M16.1381 0.389154L13.4968 0.00409695C13.4186 -0.0113053 13.3405 0.0194973 13.3092 0.0503019L12.1839 1.49812C12.1058 1.59053 12.0902 1.71375 12.1214 1.82156C12.1527 1.92938 12.0589 2.02179 11.9495 2.00639L11.0274 1.80616C10.8867 1.77536 10.7304 1.82156 10.6366 1.94479L6.97941 6.56547C6.91694 6.65788 6.79188 6.6887 6.68247 6.64247L5.29148 6.02641C5.16645 5.96476 5.02579 5.98018 4.91638 6.05718L4.21307 6.53465C4.10366 6.61165 3.94737 6.62706 3.82233 6.56547L3.47849 6.39606C3.25969 6.28823 2.99399 6.41147 2.93148 6.64247L2.68141 7.73606C2.61889 7.99788 2.72829 8.2597 2.96273 8.39835L3.49412 8.72176L5.1977 9.75376L6.02606 10.262C6.26047 10.4006 6.55747 10.3698 6.76065 10.2004L8.15165 8.99906C8.261 8.90659 8.43294 8.87582 8.558 8.95282L8.97994 9.16847C9.12064 9.24547 9.29253 9.21464 9.40194 9.10682L10.1053 8.45994C10.2146 8.35212 10.3866 8.3367 10.5116 8.39835L11.5588 8.87582C11.7151 8.95282 11.9026 8.90659 12.0121 8.768L12.4965 8.15188L16.1694 3.51582C16.3413 3.30018 16.2319 2.97673 15.9506 2.91513L15.1379 2.7303C14.9659 2.69949 14.8878 2.48386 15.0128 2.36065L16.2788 0.805012C16.4038 0.620188 16.3257 0.419959 16.1381 0.389154Z" fill="url(#paint0_linear_1805_188)"/>
<path d="M4.02516 9.72292C3.94701 9.67674 3.86886 9.75374 3.90012 9.83074L4.29085 10.8473C4.32211 10.9243 4.32211 11.0013 4.30648 11.0783L3.96264 12.4029C3.94701 12.4953 3.97827 12.5877 4.04079 12.634L5.02542 13.3887C5.1192 13.4503 5.24424 13.4503 5.32238 13.3733L6.35391 12.4799C6.41644 12.4337 6.49456 12.4029 6.55709 12.3875L7.72926 12.2643C7.80744 12.2489 7.83868 12.1411 7.76056 12.0949L4.02516 9.72292Z" fill="url(#paint1_linear_1805_188)"/>
<path d="M3.68138 13.1423C3.61886 13.0961 3.52509 13.0807 3.44694 13.1115L2.61859 13.5119C2.5717 13.5273 2.54045 13.5736 2.50919 13.6197L0.743094 17.917C0.743094 17.9324 0.743094 17.9324 0.743094 17.9478C0.758723 17.9632 0.774353 17.9786 0.805606 17.9786L1.21197 17.8246C1.2276 17.8246 1.24322 17.8246 1.25885 17.8246C1.27448 17.84 1.29011 17.8708 1.27448 17.8862L0.00851911 19.9347C-0.0227393 19.9809 0.0397789 20.0271 0.071037 19.9809L4.65039 15.4526C4.69727 15.4064 4.7129 15.3602 4.72853 15.2986L4.82231 14.128C4.82231 14.051 4.79105 13.9894 4.74416 13.9432L3.68138 13.1423Z" fill="url(#paint2_linear_1805_188)"/>
</g>
<defs>
<linearGradient id="paint0_linear_1805_188" x1="9.50182" y1="0" x2="9.50182" y2="10.3493" gradientUnits="userSpaceOnUse">
<stop stop-color="white"/>
<stop offset="1" stop-color="white" stop-opacity="0.75"/>
</linearGradient>
<linearGradient id="paint1_linear_1805_188" x1="5.84944" y1="9.70898" x2="5.84944" y2="13.4331" gradientUnits="userSpaceOnUse">
<stop stop-color="white"/>
<stop offset="1" stop-color="white" stop-opacity="0.75"/>
</linearGradient>
<linearGradient id="paint2_linear_1805_188" x1="2.41116" y1="13.0955" x2="2.41116" y2="20" gradientUnits="userSpaceOnUse">
<stop stop-color="white"/>
<stop offset="1" stop-color="white" stop-opacity="0.75"/>
</linearGradient>
<clipPath id="clip0_1805_188">
<rect width="16.4706" height="20" fill="white"/>
</clipPath>
</defs>
</svg>
